<?xml version="1.0" encoding="UTF-8" standalone="no"?>
<svg width="62px" height="58px" viewBox="0 0 62 58" version="1.1" xmlns="http://www.w3.org/2000/svg" xmlns:xlink="http://www.w3.org/1999/xlink">
    <!-- Generator: Sketch 3.6.1 (26313) - http://www.bohemiancoding.com/sketch -->
    <title>Artboard</title>
    <desc>Created with Sketch.</desc>
    <defs></defs>
    <g id="assets" stroke="none" stroke-width="1" fill="none" fill-rule="evenodd">
        <g id="Artboard" fill="#FFFFFF">
            <path d="M57,24.2 L57,7 C57,3.1 53.9,0 50,0 L12,0 C8.1,0 5,3.1 5,7 L5,24.2 C2.1,24.9 0,27.5 0,30.5 L0,52 C0,52.6 0.4,53 1,53 L6,53 L6,57 C6,57.6 6.4,58 7,58 C7.6,58 8,57.6 8,57 L8,53 L54,53 L54,57 C54,57.6 54.4,58 55,58 C55.6,58 56,57.6 56,57 L56,53 L61,53 C61.6,53 62,52.6 62,52 L62,30.5 C62,27.4 59.9,24.9 57,24.2 L57,24.2 Z M12,2 L50,2 C52.8,2 55,4.2 55,7 L55,24 C51.6,24.3 49,27.1 49,30.5 L49,34.1 C47.7,32.8 46,32 44,32 L18,32 C16,32 14.3,32.8 13,34.1 L13,30.5 C13,27.1 10.4,24.3 7,24 L7,7 C7,4.2 9.2,2 12,2 L12,2 Z M13,39 C13,36.2 15.2,34 18,34 L44,34 C46.8,34 49,36.2 49,39 L49,41 L13,41 L13,39 L13,39 Z M60,51 L2,51 L2,30.5 C2,28 4,26 6.5,26 C9,26 11,28 11,30.5 L11,39 L11,42 C11,42.6 11.4,43 12,43 L50,43 C50.6,43 51,42.6 51,42 L51,39 L51,30.5 C51,28 53,26 55.5,26 C58,26 60,28 60,30.5 L60,51 L60,51 Z" id="Shape"></path>
        </g>
    </g>
</svg>