<?xml version="1.0" encoding="UTF-8" standalone="no"?>
<svg width="58px" height="62px" viewBox="0 0 58 62" version="1.1" xmlns="http://www.w3.org/2000/svg" xmlns:xlink="http://www.w3.org/1999/xlink">
    <!-- Generator: Sketch 3.6.1 (26313) - http://www.bohemiancoding.com/sketch -->
    <title>Artboard</title>
    <desc>Created with Sketch.</desc>
    <defs></defs>
    <g id="assets" stroke="none" stroke-width="1" fill="none" fill-rule="evenodd">
        <g id="Artboard" fill="#FFFFFF">
            <path d="M51,62 C51.6,62 52,61.6 52,61 L52,58 L57,58 C57.6,58 58,57.6 58,57 L58,1 C58,0.4 57.6,0 57,0 L1,0 C0.4,0 0,0.4 0,1 L0,57 C0,57.6 0.4,58 1,58 L6,58 L6,61 C6,61.6 6.4,62 7,62 C7.6,62 8,61.6 8,61 L8,58 L50,58 L50,61 C50,61.6 50.4,62 51,62 L51,62 Z M56,2 L56,28 L2,28 L2,2 L56,2 L56,2 Z M2,30 L56,30 L56,56 L2,56 L2,30 L2,30 Z" id="Shape"></path>
            <path d="M32,25 L38,25 L44,25 L50,25 C50.6,25 51,24.6 51,24 L51,6 C51,5.4 50.6,5 50,5 L44,5 L38,5 L32,5 C31.4,5 31,5.4 31,6 L31,24 C31,24.6 31.4,25 32,25 L32,25 Z M49,23 L45,23 L45,7 L49,7 L49,23 L49,23 Z M43,23 L39,23 L39,7 L43,7 L43,23 L43,23 Z M33,7 L37,7 L37,23 L33,23 L33,7 L33,7 Z" id="Shape"></path>
            <path d="M8,53 L14,53 L20,53 L26,53 C26.6,53 27,52.6 27,52 L27,34 C27,33.4 26.6,33 26,33 L20,33 L14,33 L8,33 C7.4,33 7,33.4 7,34 L7,52 C7,52.6 7.4,53 8,53 L8,53 Z M25,51 L21,51 L21,35 L25,35 L25,51 L25,51 Z M19,51 L15,51 L15,35 L19,35 L19,51 L19,51 Z M9,35 L13,35 L13,51 L9,51 L9,35 L9,35 Z" id="Shape"></path>
            <path d="M8,25 L26,25 C26.6,25 27,24.6 27,24 L27,18 C27,17.4 26.6,17 26,17 L8,17 C7.4,17 7,17.4 7,18 L7,24 C7,24.6 7.4,25 8,25 L8,25 Z M9,19 L25,19 L25,23 L9,23 L9,19 L9,19 Z" id="Shape"></path>
            <path d="M32,53 L50,53 C50.6,53 51,52.6 51,52 L51,46 C51,45.4 50.6,45 50,45 L32,45 C31.4,45 31,45.4 31,46 L31,52 C31,52.6 31.4,53 32,53 L32,53 Z M33,47 L49,47 L49,51 L33,51 L33,47 L33,47 Z" id="Shape"></path>
        </g>
    </g>
</svg>