<?xml version="1.0" encoding="UTF-8" standalone="no"?>
<svg width="62px" height="60px" viewBox="0 0 62 60" version="1.1" xmlns="http://www.w3.org/2000/svg" xmlns:xlink="http://www.w3.org/1999/xlink">
    <!-- Generator: Sketch 3.6.1 (26313) - http://www.bohemiancoding.com/sketch -->
    <title>Artboard</title>
    <desc>Created with Sketch.</desc>
    <defs></defs>
    <g id="assets" stroke="none" stroke-width="1" fill="none" fill-rule="evenodd">
        <g id="Artboard" fill="#FFFFFF">
            <path d="M53,0 C48.4,0 44.5,3.5 44.1,8.1 C39.5,8.5 36,12.4 36,17 C36,17.6 36.4,18 37,18 L53,18 C53.6,18 54,17.6 54,17 C54,12.4 50.5,8.6 46.1,8.1 C46.5,4.6 49.5,2 53,2 C56.9,2 60,5.1 60,9 L60,34 L1,34 C0.4,34 0,34.4 0,35 L0,38.3 C0,47 7,54 15.7,54 L16,54 L16,59 C16,59.6 16.4,60 17,60 C17.6,60 18,59.6 18,59 L18,54 L44,54 L44,59 C44,59.6 44.4,60 45,60 C45.6,60 46,59.6 46,59 L46,54 L46.3,54 C55,54 62,47 62,38.3 L62,35 L62,9 C62,4 58,0 53,0 L53,0 Z M51.9,16 L38.1,16 C38.6,12.6 41.5,10 45,10 C48.5,10 51.4,12.6 51.9,16 L51.9,16 Z M60,38.3 C60,45.9 53.9,52 46.3,52 L15.7,52 C8.1,52 2,45.9 2,38.3 L2,36 L60,36 L60,38.3 L60,38.3 Z" id="Shape"></path>
            <path d="M37,28 C37.6,28 38,27.6 38,27 L38,24 C38,23.4 37.6,23 37,23 C36.4,23 36,23.4 36,24 L36,27 C36,27.6 36.4,28 37,28 L37,28 Z" id="Shape"></path>
            <path d="M46,27 L46,24 C46,23.4 45.6,23 45,23 C44.4,23 44,23.4 44,24 L44,27 C44,27.6 44.4,28 45,28 C45.6,28 46,27.6 46,27 L46,27 Z" id="Shape"></path>
            <path d="M54,27 L54,24 C54,23.4 53.6,23 53,23 C52.4,23 52,23.4 52,24 L52,27 C52,27.6 52.4,28 53,28 C53.6,28 54,27.6 54,27 L54,27 Z" id="Shape"></path>
        </g>
    </g>
</svg>